<svg width="2442" height="556" viewBox="0 0 2442 556" fill="none" xmlns="http://www.w3.org/2000/svg">
<path fill-rule="evenodd" clip-rule="evenodd" d="M2338.84 41.9278L2441.33 42.4924C2441.33 42.4924 2250.79 300.691 2235.23 321.734C2230.17 328.547 2222.5 335.897 2218.6 345.007C2208.76 367.906 2198.66 418.14 2198.66 418.14L2104.88 418.609C2104.88 418.609 2119.48 366.246 2118.87 338.356C2118.35 313.992 2105.91 289.658 2098.93 265.223C2091.88 240.486 2082.3 192.084 2082.3 192.084H2178.71L2192.01 245.275L2338.84 41.9278Z" fill="#1A1918"/>
<path fill-rule="evenodd" clip-rule="evenodd" d="M2144.77 96.3819C2163.69 107.784 2175.29 170.683 2175.29 170.683C2175.29 170.683 2076.33 172.142 2022.47 172.142H1975.93L1919.42 418.14H1832.99C1832.99 418.14 1886.77 150.802 1899.47 102.334C1903.59 86.6404 1927.66 89.3341 1968.32 89.3341H2033.24C2075.17 89.3341 2124.16 83.9801 2144.77 96.3819ZM1742.4 216.19C1742.4 216.19 1745.09 200.4 1733.26 182.113C1723.15 166.525 1713.81 162.898 1687.22 162.066C1612.12 159.707 1613.58 215.357 1613.58 215.357L1742.4 216.19ZM1823.84 152.458C1834.85 192.156 1813.87 285.433 1813.87 285.433C1813.87 285.433 1704.33 283.605 1644.33 285.433C1625.68 286.002 1603.35 283.404 1597.79 292.084C1589.98 304.246 1600.65 322.969 1609.69 330.878C1620.1 339.983 1640.37 341.021 1647.66 341.944C1696.35 348.131 1798.28 343.542 1798.28 343.542L1780.62 421.724C1780.62 421.724 1636.59 428.948 1564.55 411.752C1550.32 408.365 1536.99 401.518 1527.98 391.81C1525.52 389.155 1523.39 385.533 1521.06 382.403C1519.2 379.906 1513.79 371.7 1511.36 365.212C1494.9 321.366 1513.28 237.366 1531.3 192.352C1533.39 187.137 1536.02 180.52 1538.79 174.898C1542.24 167.888 1545.16 159.975 1547.93 155.783C1549.78 152.893 1552.08 151.032 1554.01 148.305C1556.24 145.08 1558.82 141.956 1561.22 139.166C1567.87 131.453 1575.42 125.999 1584.49 119.224C1614.51 96.7455 1668.83 79.2959 1734.09 85.9753C1758.66 88.5016 1795.76 97.2766 1813.87 122.544C1818.72 129.291 1821.12 142.683 1823.84 152.458ZM1427.42 89.0279L1511.23 88.5351C1511.23 88.5351 1464.52 310.098 1440.72 418.14H1344.31C1276.93 418.14 1216.92 426.484 1191.39 378.246C1166.63 331.409 1190.26 254.385 1201.36 202.056C1209.21 165.022 1225.74 89.3293 1225.74 89.3293L1312.57 88.5351C1312.57 88.5351 1288.03 206.381 1277.82 265.223C1274.17 286.299 1266.63 306.146 1274.5 321.729C1281.98 336.562 1292.45 337.624 1324.36 338.356C1334.47 338.595 1367.58 338.356 1367.58 338.356L1427.42 89.0279ZM1035.15 248.596C1043.92 217.419 1056.72 183.611 1055.1 155.515C1053.34 125.468 1028.14 98.1092 1011.88 92.358C962.916 75.0711 917.074 99.2383 898.854 118.951C875.285 144.482 867.304 174.305 858.96 215.362C852.75 245.84 847.659 278.017 858.96 301.787C878.969 343.81 941.371 334.633 1008.56 335.035C1018.53 308.308 1026.77 278.289 1035.15 248.596ZM1151.5 125.602C1161.07 195.209 1124.35 272.041 1099.04 338.854C1124.84 341.184 1147.45 338.495 1149.08 340.418C1150.77 342.911 1131.79 420.169 1125.17 420.37C1104.69 420.901 1036.85 421.465 1008.56 421.465C916.237 421.465 829.874 427.48 785.831 381.576C767.946 362.925 755.578 330.94 752.583 308.438C747.597 270.873 753.846 229.515 762.559 195.415C770.439 164.625 780.54 135.573 795.803 108.975C834.597 41.2628 902.079 -8.99997 1015.2 2.6028C1037.15 4.86115 1068.66 14.4687 1088.34 25.8705C1089.7 26.6696 1094.46 30.459 1095.55 31.1241C1122.15 48.0474 1146.38 88.4346 1151.5 125.602ZM743.042 89.4298C737.459 114.86 731.875 143.688 725.99 168.817H632.909C640.12 140.96 645.641 113.267 652.857 89.0327C682.641 89.0327 710.335 89.4298 743.047 89.4298M629.584 192.089H719.344C707.607 257.046 684.368 361.825 666.153 434.762C654.751 480.407 647.139 513.713 616.287 537.814C613.527 539.976 611.933 538.948 609.637 541.139C603.953 546.56 577.656 552.847 563.101 554.435C539.432 557 512.671 554.77 483.58 554.172C491.193 526.35 499.805 492.938 506.59 468.001C577.498 476.584 579.293 409.561 593.02 345.007C600.962 307.705 625.034 207.046 629.584 192.089Z" fill="#1A1918"/>
<path fill-rule="evenodd" clip-rule="evenodd" d="M420.15 361.628L418.227 366.614C385.452 430.441 327.371 469.599 244.53 471.326C205.803 472.125 168.904 462.187 144.799 451.384C92.7799 428.011 49.0243 384.667 25.1298 338.356C-9.14743 271.969 -15.3292 179.62 55.9429 110.645C57.0434 110.645 47.2971 125.602 48.3975 125.602L46.4358 131.984C-4.92258 292.777 153.311 430.575 307.127 414.815C344.094 411.025 391.232 390.781 420.15 361.628Z" fill="#21609B"/>
<path fill-rule="evenodd" clip-rule="evenodd" d="M327.07 295.141C365.768 295.404 406.189 277.318 430.126 251.926C409.184 305.083 348.548 339.251 267.238 328.385C199.152 319.275 134.296 250.763 127.617 182.113C122.732 132.152 140.143 102.334 168.837 66.1621C158.865 85.0806 155.138 99.669 154.21 108.975C143.311 217.051 240.544 294.572 327.07 295.141Z" fill="#21609B"/>
<path fill-rule="evenodd" clip-rule="evenodd" d="M426.236 160.903C420.222 174.702 385.586 200.759 370.29 204.017C309.721 216.922 270.932 188.199 250.611 155.515C247.592 150.635 242.008 137.305 241.008 133.913C233.128 107.119 236.75 66.5927 260.257 45.6168C253.176 65.564 252.142 88.7313 255.869 103.793C258.128 112.899 265.008 128.798 271.893 138.798C284.419 157.013 292.367 161.439 308.458 171.113C315.706 175.467 323.481 178.96 326.84 179.917C342.098 184.41 374.309 196.242 426.236 160.903Z" fill="#21609B"/>
</svg>
